<svg width="248" height="236" viewBox="0 0 248 236" fill="none" xmlns="http://www.w3.org/2000/svg">
<path d="M230.611 137C132.111 131 164.909 97.9011 138.436 69.301C111.964 40.7009 162.889 16.1332 123 11C83.1113 5.86678 104.671 82.9357 71.0391 103.801C37.4073 124.666 22.1108 72.5 6.11083 106.5C-4.67685 143.073 68.5 217 85 214C134.54 214 82.1396 165.204 119.111 180.229C156.082 195.253 113.105 235.833 151.436 224.229C189.767 212.624 266.5 137 230.611 137Z" fill="url(#paint0_diamond_107_6)"/>
<path d="M156.369 140H147.034C146.482 137.315 145.516 134.956 144.136 132.923C142.781 130.891 141.124 129.184 139.167 127.804C137.235 126.399 135.089 125.345 132.73 124.642C130.371 123.939 127.912 123.588 125.352 123.588C120.685 123.588 116.456 124.768 112.667 127.126C108.903 129.485 105.904 132.961 103.67 137.553C101.462 142.146 100.358 147.779 100.358 154.455C100.358 161.13 101.462 166.763 103.67 171.356C105.904 175.948 108.903 179.424 112.667 181.783C116.456 184.142 120.685 185.321 125.352 185.321C127.912 185.321 130.371 184.97 132.73 184.267C135.089 183.564 137.235 182.523 139.167 181.143C141.124 179.737 142.781 178.018 144.136 175.986C145.516 173.928 146.482 171.569 147.034 168.909H156.369C155.667 172.849 154.387 176.375 152.53 179.487C150.673 182.598 148.364 185.246 145.604 187.429C142.843 189.587 139.744 191.231 136.306 192.36C132.893 193.489 129.242 194.054 125.352 194.054C118.777 194.054 112.93 192.448 107.811 189.236C102.692 186.024 98.6641 181.456 95.728 175.534C92.7919 169.612 91.3239 162.585 91.3239 154.455C91.3239 146.324 92.7919 139.297 95.728 133.375C98.6641 127.453 102.692 122.885 107.811 119.673C112.93 116.461 118.777 114.855 125.352 114.855C129.242 114.855 132.893 115.42 136.306 116.549C139.744 117.678 142.843 119.335 145.604 121.518C148.364 123.676 150.673 126.311 152.53 129.423C154.387 132.509 155.667 136.035 156.369 140Z" fill="#FF9432"/>
<path d="M162.335 193V115.909H189.287C194.657 115.909 199.086 116.838 202.575 118.695C206.063 120.527 208.66 122.998 210.366 126.11C212.073 129.197 212.926 132.622 212.926 136.386C212.926 139.699 212.336 142.434 211.157 144.592C210.003 146.75 208.472 148.457 206.565 149.712C204.683 150.966 202.637 151.895 200.429 152.497V153.25C202.788 153.401 205.159 154.229 207.543 155.734C209.927 157.24 211.922 159.398 213.528 162.209C215.134 165.019 215.938 168.457 215.938 172.523C215.938 176.387 215.059 179.863 213.303 182.95C211.546 186.036 208.773 188.483 204.984 190.29C201.194 192.097 196.263 193 190.19 193H162.335ZM171.67 184.719H190.19C196.288 184.719 200.617 183.539 203.177 181.18C205.762 178.796 207.054 175.911 207.054 172.523C207.054 169.913 206.389 167.504 205.059 165.295C203.729 163.062 201.834 161.28 199.375 159.95C196.916 158.595 194.005 157.918 190.642 157.918H171.67V184.719ZM171.67 149.787H188.986C191.796 149.787 194.331 149.235 196.589 148.131C198.873 147.027 200.68 145.471 202.01 143.463C203.365 141.455 204.043 139.097 204.043 136.386C204.043 132.999 202.863 130.125 200.504 127.766C198.145 125.382 194.406 124.19 189.287 124.19H171.67V149.787Z" fill="white"/>
<path d="M119.335 118V40.9091H165.56V49.1903H128.67V75.2386H162.097V83.5199H128.67V118H119.335Z" fill="#FF9432"/>
<path d="M110.381 79.4545C110.381 87.5852 108.913 94.6117 105.977 100.534C103.04 106.456 99.0128 111.024 93.8935 114.236C88.7741 117.448 82.9271 119.054 76.3523 119.054C69.7775 119.054 63.9304 117.448 58.8111 114.236C53.6918 111.024 49.6641 106.456 46.728 100.534C43.7919 94.6117 42.3239 87.5852 42.3239 79.4545C42.3239 71.3239 43.7919 64.2973 46.728 58.375C49.6641 52.4527 53.6918 47.8854 58.8111 44.6733C63.9304 41.4612 69.7775 39.8551 76.3523 39.8551C82.9271 39.8551 88.7741 41.4612 93.8935 44.6733C99.0128 47.8854 103.04 52.4527 105.977 58.375C108.913 64.2973 110.381 71.3239 110.381 79.4545ZM101.347 79.4545C101.347 72.7794 100.23 67.1456 97.9965 62.5533C95.7881 57.9609 92.7893 54.4853 89 52.1264C85.2358 49.7675 81.0199 48.5881 76.3523 48.5881C71.6847 48.5881 67.4562 49.7675 63.6669 52.1264C59.9027 54.4853 56.9039 57.9609 54.6705 62.5533C52.4621 67.1456 51.358 72.7794 51.358 79.4545C51.358 86.1297 52.4621 91.7635 54.6705 96.3558C56.9039 100.948 59.9027 104.424 63.6669 106.783C67.4562 109.142 71.6847 110.321 76.3523 110.321C81.0199 110.321 85.2358 109.142 89 106.783C92.7893 104.424 95.7881 100.948 97.9965 96.3558C100.23 91.7635 101.347 86.1297 101.347 79.4545Z" fill="white"/>
<defs>
<radialGradient id="paint0_diamond_107_6" cx="0" cy="0" r="1" gradientUnits="userSpaceOnUse" gradientTransform="translate(132.936 125.957) rotate(90) scale(157 166.5)">
<stop stop-color="#47AFDB"/>
<stop offset="1" stop-color="#6D95FC" stop-opacity="0"/>
</radialGradient>
</defs>
</svg>
