<svg width="314" height="294" viewBox="0 0 314 294" fill="none" xmlns="http://www.w3.org/2000/svg">
<circle cx="147" cy="147" r="147" fill="#0F172A"/>
<path d="M256 167.771C157.5 161.771 190.298 128.673 163.825 100.073C137.353 71.4724 209.214 41.1332 169.325 36C129.437 30.8668 130.06 113.707 96.4283 134.573C62.7965 155.438 47.5 114.5 31.5 148.5C20.7123 185.073 91.6231 227.257 109 261.5C160.699 255 107.529 195.976 144.5 211C181.471 226.024 138.494 266.605 176.825 255C215.157 243.395 301 173 256 167.771L193 159.771L75.3251 204.718L256 167.771Z" fill="url(#paint0_diamond_104_3)"/>
<path d="M101.125 216H77.3352V138.909H102.179C109.657 138.909 116.056 140.452 121.376 143.539C126.696 146.601 130.774 151.005 133.61 156.751C136.446 162.473 137.864 169.324 137.864 177.304C137.864 185.334 136.433 192.248 133.572 198.045C130.712 203.817 126.546 208.258 121.075 211.37C115.605 214.457 108.955 216 101.125 216ZM86.6705 207.719H100.523C106.897 207.719 112.179 206.489 116.37 204.03C120.561 201.571 123.685 198.07 125.743 193.528C127.801 188.986 128.83 183.578 128.83 177.304C128.83 171.08 127.813 165.723 125.781 161.231C123.748 156.714 120.711 153.251 116.671 150.842C112.631 148.407 107.599 147.19 101.577 147.19H86.6705V207.719Z" fill="white"/>
<path d="M136.119 147.19V138.909H193.938V147.19H169.696V216H160.361V147.19H136.119Z" fill="#FF9432"/>
<path d="M184.335 131V53.9091H230.56V62.1903H193.67V88.2386H227.097V96.5199H193.67V131H184.335Z" fill="#FF9432"/>
<path d="M176.381 92.4545C176.381 100.585 174.913 107.612 171.977 113.534C169.04 119.456 165.013 124.024 159.893 127.236C154.774 130.448 148.927 132.054 142.352 132.054C135.777 132.054 129.93 130.448 124.811 127.236C119.692 124.024 115.664 119.456 112.728 113.534C109.792 107.612 108.324 100.585 108.324 92.4545C108.324 84.3239 109.792 77.2973 112.728 71.375C115.664 65.4527 119.692 60.8854 124.811 57.6733C129.93 54.4612 135.777 52.8551 142.352 52.8551C148.927 52.8551 154.774 54.4612 159.893 57.6733C165.013 60.8854 169.04 65.4527 171.977 71.375C174.913 77.2973 176.381 84.3239 176.381 92.4545ZM167.347 92.4545C167.347 85.7794 166.23 80.1456 163.996 75.5533C161.788 70.9609 158.789 67.4853 155 65.1264C151.236 62.7675 147.02 61.5881 142.352 61.5881C137.685 61.5881 133.456 62.7675 129.667 65.1264C125.903 67.4853 122.904 70.9609 120.67 75.5533C118.462 80.1456 117.358 85.7794 117.358 92.4545C117.358 99.1297 118.462 104.763 120.67 109.356C122.904 113.948 125.903 117.424 129.667 119.783C133.456 122.142 137.685 123.321 142.352 123.321C147.02 123.321 151.236 122.142 155 119.783C158.789 117.424 161.788 113.948 163.996 109.356C166.23 104.763 167.347 99.1297 167.347 92.4545Z" fill="white"/>
<line x1="189" y1="54" x2="189" y2="147" stroke="#FF9432" stroke-width="10"/>
<defs>
<radialGradient id="paint0_diamond_104_3" cx="0" cy="0" r="1" gradientUnits="userSpaceOnUse" gradientTransform="translate(158.325 156.729) rotate(90) scale(157 166.5)">
<stop stop-color="#47AFDB"/>
<stop offset="1" stop-color="#6D95FC" stop-opacity="0"/>
</radialGradient>
</defs>
</svg>
