<svg width="281" height="251" viewBox="0 0 281 251" fill="none" xmlns="http://www.w3.org/2000/svg">
<rect width="281" height="251" fill="white"/>
<g style="mix-blend-mode:luminosity">
<g filter="url(#filter0_i_101_10)">
<path d="M79.8284 126.306L132.427 60.1107C133.667 58.5512 136.054 58.6102 137.214 60.229L184.615 126.342C184.981 126.852 185.177 127.463 185.177 128.09V165.485C185.177 166.62 184.537 167.657 183.524 168.166L131.497 194.296C130.619 194.737 129.581 194.72 128.718 194.252L80.745 168.187C79.7787 167.663 79.1772 166.651 79.1772 165.551V128.173C79.1772 127.495 79.4067 126.837 79.8284 126.306Z" fill="#1E1E1E" fill-opacity="0.08"/>
</g>
<path d="M80.2198 126.617L132.819 60.4218C133.852 59.1222 135.841 59.1713 136.808 60.5204L184.209 126.634C184.513 127.058 184.677 127.568 184.677 128.09V165.485C184.677 166.431 184.144 167.295 183.299 167.719L131.272 193.85C130.541 194.217 129.676 194.203 128.957 193.812L80.9837 167.748C80.1785 167.311 79.6772 166.468 79.6772 165.551V128.173C79.6772 127.608 79.8684 127.06 80.2198 126.617Z" stroke="#74AECF"/>
</g>
<path d="M166.959 144.858C134.31 142.864 145.181 131.867 136.406 122.365C127.632 112.862 151.451 102.781 138.229 101.076C125.008 99.3704 125.214 126.895 114.067 133.827C102.919 140.76 97.8488 127.158 92.5454 138.455C88.9696 150.607 112.474 164.623 118.234 176C135.37 173.84 117.746 154.229 130.001 159.221C142.255 164.213 128.01 177.696 140.715 173.84C153.421 169.985 181.875 146.595 166.959 144.858L146.077 142.2L107.072 157.134L166.959 144.858Z" fill="url(#paint0_diamond_101_10)"/>
<line x1="79.1768" y1="127.381" x2="132.123" y2="147.397" stroke="#8F8080" stroke-dasharray="2 2"/>
<line x1="131.771" y1="147.396" x2="185.364" y2="127.38" stroke="#8F8080" stroke-dasharray="2 2"/>
<path d="M131.624 147.856L134.529 57.7914" stroke="#8F8080" stroke-dasharray="2 2"/>
<g filter="url(#filter1_f_101_10)">
<circle cx="131.677" cy="147.5" r="4.5" fill="white"/>
</g>
<defs>
<filter id="filter0_i_101_10" x="79.1772" y="58.9771" width="106" height="139.638" filterUnits="userSpaceOnUse" color-interpolation-filters="sRGB">
<feFlood flood-opacity="0" result="BackgroundImageFix"/>
<feBlend mode="normal" in="SourceGraphic" in2="BackgroundImageFix" result="shape"/>
<feColorMatrix in="SourceAlpha" type="matrix" values="0 0 0 0 0 0 0 0 0 0 0 0 0 0 0 0 0 0 127 0" result="hardAlpha"/>
<feOffset dy="4"/>
<feGaussianBlur stdDeviation="2"/>
<feComposite in2="hardAlpha" operator="arithmetic" k2="-1" k3="1"/>
<feColorMatrix type="matrix" values="0 0 0 0 0 0 0 0 0 0 0 0 0 0 0 0 0 0 0.25 0"/>
<feBlend mode="normal" in2="shape" result="effect1_innerShadow_101_10"/>
</filter>
<filter id="filter1_f_101_10" x="123.177" y="139" width="17" height="17" filterUnits="userSpaceOnUse" color-interpolation-filters="sRGB">
<feFlood flood-opacity="0" result="BackgroundImageFix"/>
<feBlend mode="normal" in="SourceGraphic" in2="BackgroundImageFix" result="shape"/>
<feGaussianBlur stdDeviation="2" result="effect1_foregroundBlur_101_10"/>
</filter>
<radialGradient id="paint0_diamond_101_10" cx="0" cy="0" r="1" gradientUnits="userSpaceOnUse" gradientTransform="translate(134.583 141.189) rotate(90) scale(52.1644 55.1887)">
<stop stop-color="#47AFDB"/>
<stop offset="1" stop-color="#6D95FC" stop-opacity="0"/>
</radialGradient>
</defs>
</svg>
